<svg xmlns="http://www.w3.org/2000/svg" xmlns:xlink="http://www.w3.org/1999/xlink" width="500" zoomAndPan="magnify" viewBox="0 0 375 374.999991" height="500" preserveAspectRatio="xMidYMid meet" version="1.0"><defs><g/><clipPath id="c5a2490c89"><path d="M 75 0 L 300 0 C 341.421875 0 375 33.578125 375 75 L 375 300 C 375 341.421875 341.421875 375 300 375 L 75 375 C 33.578125 375 0 341.421875 0 300 L 0 75 C 0 33.578125 33.578125 0 75 0 Z M 75 0 " clip-rule="nonzero"/></clipPath></defs><g clip-path="url(#c5a2490c89)"><rect x="-37.5" width="450" fill="#3b3b3b" y="-37.499999" height="449.999989" fill-opacity="1"/><path fill="#d9d9d9" d="M 105 -7.5 L 127.5 -7.5 L 127.5 7.5 L 105 7.5 Z M 135 -7.5 L 157.5 -7.5 L 157.5 7.5 L 135 7.5 Z M 165 -7.5 L 187.5 -7.5 L 187.5 7.5 L 165 7.5 Z M 195 -7.5 L 217.5 -7.5 L 217.5 7.5 L 195 7.5 Z M 225 -7.5 L 247.5 -7.5 L 247.5 7.5 L 225 7.5 Z M 255 -7.5 L 277.5 -7.5 L 277.5 7.5 L 255 7.5 Z M 285 -7.5 L 300 -7.5 C 302.757812 -7.5 305.503906 -7.363281 308.234375 -7.09375 L 306.753906 7.832031 C 304.515625 7.609375 302.261719 7.5 300 7.5 L 285 7.5 Z M 316.394531 -5.871094 C 324.542969 -4.226562 332.269531 -1.402344 339.574219 2.59375 L 332.371094 15.75 C 326.402344 12.484375 320.085938 10.175781 313.425781 8.832031 Z M 346.605469 6.914062 C 353.460938 11.617188 359.476562 17.226562 364.648438 23.746094 L 352.902344 33.070312 C 348.664062 27.730469 343.738281 23.136719 338.121094 19.285156 Z M 369.457031 30.460938 C 373.957031 37.46875 377.316406 44.976562 379.527344 52.980469 L 365.070312 56.976562 C 363.261719 50.433594 360.515625 44.300781 356.835938 38.570312 Z M 381.320312 61.035156 C 382.105469 65.636719 382.5 70.292969 382.5 75 L 382.5 84.753906 L 367.5 84.753906 L 367.5 75 C 367.5 71.140625 367.179688 67.328125 366.535156 63.554688 Z M 382.5 92.253906 L 382.5 114.753906 L 367.5 114.753906 L 367.5 92.253906 Z M 382.5 122.253906 L 382.5 144.753906 L 367.5 144.753906 L 367.5 122.253906 Z M 382.5 152.253906 L 382.5 174.753906 L 367.5 174.753906 L 367.5 152.253906 Z M 382.5 182.253906 L 382.5 204.753906 L 367.5 204.753906 L 367.5 182.253906 Z M 382.5 212.253906 L 382.5 234.753906 L 367.5 234.753906 L 367.5 212.253906 Z M 382.5 242.253906 L 382.5 264.753906 L 367.5 264.753906 L 367.5 242.253906 Z M 382.5 272.253906 L 382.5 294.753906 L 367.5 294.753906 L 367.5 272.253906 Z M 382.460938 302.496094 C 382.214844 310.832031 380.746094 318.921875 378.0625 326.757812 L 363.871094 321.894531 C 366.066406 315.488281 367.265625 308.875 367.46875 302.050781 Z M 374.996094 334.421875 C 371.527344 341.964844 367.011719 348.839844 361.449219 355.046875 L 350.28125 345.035156 C 354.835938 339.953125 358.53125 334.328125 361.367188 328.15625 Z M 355.648438 360.90625 C 349.5 366.527344 342.667969 371.109375 335.15625 374.652344 L 328.757812 361.085938 C 334.902344 358.1875 340.492188 354.4375 345.527344 349.835938 Z M 327.527344 377.792969 C 319.714844 380.558594 311.640625 382.105469 303.308594 382.433594 L 302.714844 367.445312 C 309.535156 367.175781 316.136719 365.914062 322.523438 363.652344 Z M 295.492188 382.5 L 272.992188 382.5 L 272.992188 367.5 L 295.492188 367.5 Z M 265.492188 382.5 L 242.992188 382.5 L 242.992188 367.5 L 265.492188 367.5 Z M 235.492188 382.5 L 212.992188 382.5 L 212.992188 367.5 L 235.492188 367.5 Z M 205.492188 382.5 L 182.992188 382.5 L 182.992188 367.5 L 205.492188 367.5 Z M 175.492188 382.5 L 152.992188 382.5 L 152.992188 367.5 L 175.492188 367.5 Z M 145.492188 382.5 L 122.992188 382.5 L 122.992188 367.5 L 145.492188 367.5 Z M 115.492188 382.5 L 92.992188 382.5 L 92.992188 367.5 L 115.492188 367.5 Z M 85.492188 382.5 L 75 382.5 C 70.566406 382.5 66.179688 382.152344 61.832031 381.453125 L 64.210938 366.644531 C 67.769531 367.214844 71.363281 367.5 75 367.5 L 85.492188 367.5 Z M 53.761719 379.738281 C 45.734375 377.605469 38.195312 374.324219 31.144531 369.890625 L 39.128906 357.191406 C 44.894531 360.816406 51.054688 363.5 57.613281 365.242188 Z M 24.382812 365.152344 C 17.816406 360.042969 12.148438 354.082031 7.378906 347.273438 L 19.664062 338.667969 C 23.574219 344.246094 28.214844 349.128906 33.59375 353.3125 Z M 2.988281 340.285156 C -1.082031 333.023438 -3.980469 325.324219 -5.703125 317.191406 L 8.96875 314.078125 C 10.378906 320.722656 12.746094 327.015625 16.074219 332.953125 Z M -7.007812 309.042969 C -7.335938 306.046875 -7.5 303.03125 -7.5 300 L -7.5 285.738281 L 7.5 285.738281 L 7.5 300 C 7.5 302.488281 7.632812 304.960938 7.902344 307.414062 Z M -7.5 278.238281 L -7.5 255.738281 L 7.5 255.738281 L 7.5 278.238281 Z M -7.5 248.238281 L -7.5 225.738281 L 7.5 225.738281 L 7.5 248.238281 Z M -7.5 218.238281 L -7.5 195.738281 L 7.5 195.738281 L 7.5 218.238281 Z M -7.5 188.238281 L -7.5 165.738281 L 7.5 165.738281 L 7.5 188.238281 Z M -7.5 158.238281 L -7.5 135.738281 L 7.5 135.738281 L 7.5 158.238281 Z M -7.5 128.238281 L -7.5 105.738281 L 7.5 105.738281 L 7.5 128.238281 Z M -7.5 98.238281 L -7.5 75.738281 L 7.5 75.738281 L 7.5 98.238281 Z M -7.167969 67.566406 C -6.425781 59.269531 -4.476562 51.28125 -1.3125 43.601562 L 12.558594 49.3125 C 9.972656 55.585938 8.378906 62.117188 7.769531 68.902344 Z M 2.210938 36.140625 C 6.128906 28.8125 11.046875 22.222656 16.96875 16.363281 L 27.519531 27.023438 C 22.671875 31.820312 18.644531 37.21875 15.4375 43.214844 Z M 23.109375 10.859375 C 29.589844 5.613281 36.683594 1.449219 44.394531 -1.632812 L 49.960938 12.292969 C 43.65625 14.816406 37.851562 18.222656 32.550781 22.515625 Z M 52.199219 -4.308594 C 59.617188 -6.4375 67.21875 -7.5 75 -7.5 L 97.5 -7.5 L 97.5 7.5 L 75 7.5 C 68.625 7.5 62.402344 8.371094 56.339844 10.109375 Z M 52.199219 -4.308594 " fill-opacity="1" fill-rule="nonzero"/></g><path stroke-linecap="butt" transform="matrix(0.75, 0, 0, 0.75, 68.784242, -30.638941)" fill="none" stroke-linejoin="miter" d="M 187.266856 426.997783 L 187.266856 291.461315 L 148.469978 386.982155 L 104.277267 386.982155 L 65.886639 291.872774 L 65.886639 426.997783 L 17.105386 426.997783 L 17.105386 169.674849 L 56.719972 155.924848 L 126.371018 321.096734 L 196.027273 155.924848 L 236.042901 169.674849 L 236.042901 426.997783 Z M 186.865814 426.997783 L 186.865814 162.13839 L 322.808531 162.13839 L 322.808531 210.914435 L 235.641859 210.914435 L 235.641859 258.87798 L 313.240822 258.87798 L 313.240822 308.164441 L 235.641859 308.164441 L 235.641859 426.997783 Z M 186.865814 426.997783 " stroke="#ffffff" stroke-width="57.351524" stroke-opacity="1" stroke-miterlimit="4"/><g fill="#2a9bed" fill-opacity="1"><g transform="translate(68.784242, 289.611038)"><g><path d="M 140.453125 0 L 140.453125 -101.671875 L 111.359375 -30.03125 L 78.203125 -30.03125 L 49.421875 -101.359375 L 49.421875 0 L 12.828125 0 L 12.828125 -193.015625 L 42.546875 -203.34375 L 94.78125 -79.453125 L 147.03125 -203.34375 L 177.0625 -193.015625 L 177.0625 0 Z M 140.453125 0 "/></g></g></g><g fill="#2a9bed" fill-opacity="1"><g transform="translate(196.103387, 289.611038)"><g><path d="M 12.828125 0 L 12.828125 -198.640625 L 114.8125 -198.640625 L 114.8125 -162.046875 L 49.421875 -162.046875 L 49.421875 -126.0625 L 107.609375 -126.0625 L 107.609375 -89.15625 L 49.421875 -89.15625 L 49.421875 0 Z M 12.828125 0 "/></g></g></g></svg>